<svg width="71" height="16" viewBox="0 0 71 16" fill="none" xmlns="http://www.w3.org/2000/svg">
<defs>
<clipPath id="clip0">
<rect width="71" height="16" fill="white"/>
</clipPath>
</defs>
<g clip-path="url(#clip0)">
<path d="M70.9998 0V16H0V0H70.9998Z" fill="#FFCC00"/>
<path d="M12.4857 2.87332L10.2173 6.02035H22.5802C23.2052 6.02035 23.1969 6.26281 22.8916 6.68531C22.5814 7.11434 22.0622 7.86023 21.7463 8.29575C21.5859 8.51693 21.2961 8.91968 22.2567 8.91968H27.3124C27.3124 8.91968 28.1273 7.78735 28.8104 6.84072C29.7397 5.55304 28.8909 2.87332 25.5687 2.87332H12.4857Z" fill="#BF190E"/>
<path d="M9.29932 13.1258L13.8555 6.80414C13.8555 6.80414 18.9064 6.80419 19.5096 6.80419C20.1345 6.80419 20.1263 7.04665 19.8209 7.4692C19.5108 7.89825 18.983 8.63619 18.6671 9.07192C18.5067 9.29297 18.2168 9.69646 19.1774 9.69646H26.7519C26.122 10.5777 24.0787 13.1258 20.4096 13.1258H9.29932Z" fill="#BF190E"/>
<path d="M35.3931 9.69568L32.9224 13.1258H26.4048C26.4048 13.1258 28.8742 9.69642 28.8764 9.69642L35.3931 9.69568Z" fill="#BF190E"/>
<path d="M45.3782 8.91969H29.4365L33.7959 2.87329H40.3115L37.8129 6.34043H40.7214L43.221 2.87329H49.736L45.3782 8.91969Z" fill="#BF190E"/>
<path d="M44.8182 9.69647L42.3463 13.1258H35.8311C35.8311 13.1258 38.3005 9.69647 38.3028 9.69647H44.8182Z" fill="#BF190E"/>
<path d="M0 11.0488H9.60134L9.07673 11.7774H0V11.0488Z" fill="#BF190E"/>
<path d="M0 9.69638H10.5768L10.0513 10.424H0V9.69638Z" fill="#BF190E"/>
<path d="M0 12.4019H8.62638L8.10439 13.1258H0V12.4019Z" fill="#BF190E"/>
<path d="M71.0002 11.7774H61.4355L61.9604 11.0488H71.0002V11.7774Z" fill="#BF190E"/>
<path d="M70.9999 13.1258L60.4629 13.1267L60.9849 12.4019H70.9999V13.1258Z" fill="#BF190E"/>
<path d="M62.9343 9.69638H70.9998V10.4244L62.4102 10.4249L62.9343 9.69638Z" fill="#BF190E"/>
<path d="M58.7593 2.87332L54.4005 8.91968H47.4966C47.4966 8.91968 51.8561 2.87332 51.8583 2.87332H58.7593Z" fill="#BF190E"/>
<path d="M46.9378 9.69647C46.9378 9.69647 46.4616 10.3611 46.2302 10.6806C45.4118 11.8099 46.1353 13.1258 48.8061 13.1258H59.2699L61.7416 9.69647H46.9378Z" fill="#BF190E"/>
</g>
</svg>
