<svg width="20" height="20" viewBox="0 0 20 20" fill="none" xmlns="http://www.w3.org/2000/svg">
<defs>
<linearGradient id="paint0_linear" x1="17.5" y1="4.16663" x2="1.37315" y2="5.79234" gradientUnits="userSpaceOnUse">
<stop stop-color="#845FA2"/>
<stop offset="1" stop-color="#34283E"/>
</linearGradient>
</defs>
<path d="M3.5983 5.265C3.25008 5.61322 2.97385 6.02662 2.78539 6.48159C2.59694 6.93657 2.49994 7.42421 2.49994 7.91667C2.49994 8.40913 2.59694 8.89677 2.78539 9.35174C2.97385 9.80671 3.25008 10.2201 3.5983 10.5683L9.99997 16.97L16.4016 10.5683C17.1049 9.86507 17.5 8.91123 17.5 7.91667C17.5 6.9221 17.1049 5.96827 16.4016 5.265C15.6984 4.56173 14.7445 4.16664 13.75 4.16664C12.7554 4.16664 11.8016 4.56173 11.0983 5.265L9.99997 6.36333L8.90164 5.265C8.55342 4.91677 8.14002 4.64055 7.68505 4.45209C7.23007 4.26363 6.74243 4.16663 6.24997 4.16663C5.75751 4.16663 5.26987 4.26363 4.8149 4.45209C4.35992 4.64055 3.94653 4.91677 3.5983 5.265V5.265Z" stroke="url(#paint0_linear)" stroke-width="2" stroke-linecap="round" stroke-linejoin="round"/>
</svg>
