<svg width="61" height="17" viewBox="0 0 61 17" fill="none" xmlns="http://www.w3.org/2000/svg">
<defs>
<clipPath id="clip0">
<rect width="61" height="17" fill="white"/>
</clipPath>
</defs>
<g clip-path="url(#clip0)">
<path d="M0.00552776 0.0115184C3.37195 -0.0104495 6.73839 0.0062461 10.1057 0.00362753C10.1194 1.23207 10.1191 2.46052 10.1048 3.68895C8.26328 3.69952 6.42112 3.69952 4.57837 3.68895C4.56559 4.45432 4.57015 5.21968 4.57563 5.98503C6.27115 5.97362 7.96578 5.98241 9.66132 5.9789C9.66861 6.65548 9.66407 7.33211 9.66041 8.00874C10.05 7.45508 10.5209 6.95872 11.0584 6.53513C11.9531 5.89532 13.0099 5.49894 14.1183 5.38752C15.2142 5.3269 16.3476 5.3102 17.388 5.69769C18.7166 6.11422 19.8208 7.07991 20.4606 8.26708C20.6335 8.59873 20.7873 8.93931 20.9214 9.28726C21.3685 7.87427 22.3851 6.61597 23.7558 5.93406C25.008 5.33368 26.4509 5.21583 27.7902 5.60454C28.4528 5.80577 29.0203 6.20737 29.494 6.68891C29.5004 4.4596 29.4967 2.23118 29.4949 0.0018701C30.8373 0.00714239 32.1787 -0.00954443 33.5202 0.0124235C33.4901 3.19159 33.5165 6.37166 33.5074 9.55087C33.5129 11.8224 33.4983 14.0947 33.5147 16.3662C32.1933 16.4066 30.8719 16.3829 29.5505 16.382C29.5432 16.0261 29.5411 15.6708 29.5442 15.3161L29.5104 15.3645C28.9036 16.1316 28.0503 16.7423 27.0538 16.9286C25.7931 17.1326 24.4986 16.8833 23.4163 16.2283C21.8896 15.3056 20.8739 13.6738 20.6786 11.9568C18.1828 11.9497 15.687 11.9585 13.1911 11.9515C13.0515 11.9603 12.9 11.9366 12.7722 12.0016C12.7997 12.3546 12.9091 12.6972 13.0923 13.0041C13.2755 13.3109 13.5279 13.5743 13.8308 13.7748C14.5225 14.2362 15.4579 14.2564 16.219 13.948C16.5521 13.7775 16.7875 13.4805 17.0257 13.2072C18.3233 13.2239 19.6219 13.2002 20.9196 13.2151C20.403 14.5367 19.4175 15.7274 18.0778 16.3425C16.835 16.9277 15.3967 17.0525 14.037 16.8882C12.4364 16.6843 10.9161 15.8592 9.96702 14.5921C9.21074 13.5879 8.8174 12.3726 8.84731 11.1326C8.8236 10.5922 8.93127 10.0596 8.99698 9.52539C7.5232 9.52101 6.04941 9.52453 4.57563 9.52362C4.57015 11.8197 4.56985 14.1161 4.57472 16.4127C3.05166 16.4356 1.52767 16.4127 0.00370264 16.4242C-0.00178184 10.9533 -0.00117347 5.48241 0.00552776 0.0115184ZM13.8244 8.22224C13.3535 8.52366 13.088 9.0245 12.9155 9.52715C14.3446 9.53594 15.7718 9.56495 17.2 9.52715C17.0594 9.12559 16.9098 8.6994 16.5721 8.40768C15.8421 7.76092 14.6384 7.66249 13.8244 8.22224ZM26.5765 8.3927C25.5727 8.6256 24.9303 9.57198 24.7979 10.5139C24.5707 11.535 24.8664 12.7064 25.7105 13.3979C26.5154 14.0701 27.8404 14.0332 28.6125 13.3294C29.337 12.5983 29.4757 11.5104 29.3434 10.5473C29.2193 9.8927 28.9829 9.19852 28.4235 8.76792C27.9116 8.36547 27.2117 8.26708 26.5765 8.39271V8.3927Z" fill="#312280"/>
<path d="M33.5196 0.0124817C36.6797 0.0229911 39.8393 0.0232782 42.9983 0.0133428C43.0001 1.23475 43.0029 2.4553 42.9965 3.6767C41.1805 3.71978 39.3618 3.68636 37.544 3.69339C37.5339 4.45966 37.4737 5.23467 37.5878 5.99564C39.3974 5.98333 41.206 5.99127 43.0157 5.99127C42.9782 7.16347 43.0165 8.33741 42.9937 9.51051C41.1924 9.51755 39.3919 9.51403 37.5905 9.51228C37.4746 10.1344 37.5467 10.768 37.5275 11.3962C37.5293 11.8479 37.4992 12.304 37.585 12.7521C39.3727 12.7407 41.1613 12.7284 42.949 12.7547C43.0695 13.1001 42.97 13.4928 42.9992 13.8566C43.0348 14.644 42.9153 15.4454 43.0923 16.2213C43.7393 15.6053 44.3014 14.912 44.9384 14.2863C45.4714 13.6317 46.0864 13.0473 46.6449 12.4138C47.0118 12.0122 47.4416 11.6581 47.7473 11.2082C47.7032 11.1226 47.6486 11.0424 47.5848 10.9692C46.6805 9.99291 45.7752 9.01811 44.8691 8.0448C44.2723 7.35152 43.5796 6.73552 43.0293 6.00706C44.2157 5.9693 45.4047 5.99917 46.592 5.98951C47.0774 6.00002 47.5648 5.96403 48.0493 6.00706C48.9172 6.77066 49.5925 7.72408 50.4923 8.45957C51.1219 7.75132 51.7854 7.07384 52.3977 6.35151C52.5528 6.1907 52.7052 5.94644 52.9708 5.98861C54.5139 6.00002 56.058 5.9693 57.6011 6.0053C57.4017 6.30253 57.1702 6.57854 56.9103 6.82867C55.5816 8.27066 54.2237 9.68802 52.9224 11.152C53.3942 11.8576 54.0914 12.3971 54.6343 13.0535C55.3918 13.8188 56.11 14.6185 56.8491 15.4005C57.1448 15.7353 57.4761 16.0438 57.7161 16.4208C56.1665 16.4436 54.6152 16.4198 53.0648 16.4304C52.8831 16.4208 52.666 16.4603 52.5309 16.3127C51.7753 15.4954 51.0343 14.6616 50.2495 13.869C49.5706 14.6159 48.856 15.332 48.2036 16.1017C48.0639 16.2511 47.9261 16.4647 47.6843 16.4277C41.624 16.4322 35.5631 16.4293 29.5016 16.419C29.4952 16.0675 29.4842 15.7151 29.5098 15.3645L29.5435 15.3162C29.5399 15.6712 29.542 16.0265 29.5499 16.3821C30.8713 16.383 32.1927 16.4067 33.5141 16.3663C33.4976 14.0948 33.5122 11.8224 33.5068 9.55093C33.5159 6.37172 33.4894 3.19165 33.5196 0.0124817Z" fill="#FF5F00"/>
<path d="M59.6687 14.3031C60.3066 14.1194 61.0896 14.6853 60.9882 15.3496C61.1078 16.1589 60.0027 16.651 59.3502 16.2415C58.5052 15.8593 58.7379 14.4366 59.6687 14.3031ZM59.6796 14.5183C59.3246 14.6212 58.9916 14.9717 59.0418 15.3496C58.9934 15.9612 59.7955 16.3909 60.3321 16.1C60.8979 15.854 60.9654 14.9876 60.4608 14.6501C60.2317 14.5025 59.9452 14.492 59.6796 14.5183V14.5183Z" fill="#FF5F00"/>
<path d="M59.4771 14.6913C59.7609 14.7001 60.072 14.636 60.333 14.7731C60.3295 15.1407 60.3465 15.5082 60.3841 15.8741C60.3613 15.9233 60.3166 16.0208 60.2938 16.07C60.1441 15.8152 60.0839 15.4988 59.8156 15.3275C59.7508 15.556 59.6951 15.788 59.6322 16.0173C59.3548 15.6324 59.5437 15.1289 59.4771 14.6913ZM59.7517 14.9312C59.7554 15.0314 59.7599 15.1315 59.7645 15.2326C59.8585 15.2247 59.9534 15.2177 60.0483 15.2115C60.0601 15.1193 60.072 15.0279 60.0848 14.9365C59.9725 14.9347 59.8621 14.933 59.7517 14.9312Z" fill="#FF5F00"/>
</g>
</svg>
