<svg width="36" height="27" viewBox="0 0 36 27" fill="none" xmlns="http://www.w3.org/2000/svg">
<path d="M6.5445 26.8659V25.0788C6.5445 24.3937 6.11231 23.947 5.37142 23.947C5.00097 23.947 4.59965 24.0661 4.32181 24.4533C4.10572 24.1257 3.79701 23.947 3.33395 23.947C3.02524 23.947 2.71654 24.0363 2.46957 24.3639V24.0065H1.82129V26.8659H2.46957V25.2873C2.46957 24.7809 2.74741 24.5426 3.1796 24.5426C3.61179 24.5426 3.82788 24.8107 3.82788 25.2873V26.8659H4.47617V25.2873C4.47617 24.7809 4.78487 24.5426 5.18619 24.5426C5.61838 24.5426 5.83448 24.8107 5.83448 25.2873V26.8659H6.5445ZM16.1453 24.0065H15.0957V23.1428H14.4474V24.0065H13.8608V24.5724H14.4474V25.883C14.4474 26.5382 14.7252 26.9254 15.4661 26.9254C15.744 26.9254 16.0527 26.8361 16.2688 26.7169L16.0835 26.1808C15.8983 26.2999 15.6822 26.3297 15.5279 26.3297C15.2192 26.3297 15.0957 26.151 15.0957 25.8532V24.5724H16.1453V24.0065ZM21.6403 23.947C21.2698 23.947 21.0228 24.1257 20.8685 24.3639V24.0065H20.2202V26.8659H20.8685V25.2575C20.8685 24.7809 21.0846 24.5129 21.4859 24.5129C21.6094 24.5129 21.7637 24.5426 21.8872 24.5724L22.0724 23.9767C21.949 23.947 21.7637 23.947 21.6403 23.947ZM13.336 24.2448C13.0273 24.0363 12.5952 23.947 12.1321 23.947C11.3912 23.947 10.8973 24.3044 10.8973 24.8703C10.8973 25.3468 11.2677 25.6149 11.916 25.7043L12.2247 25.734C12.5643 25.7936 12.7495 25.883 12.7495 26.0319C12.7495 26.2404 12.5025 26.3893 12.0703 26.3893C11.6382 26.3893 11.2986 26.2404 11.0825 26.0915L10.7738 26.568C11.1134 26.8063 11.5764 26.9254 12.0395 26.9254C12.9039 26.9254 13.3978 26.5382 13.3978 26.0021C13.3978 25.4958 12.9965 25.2277 12.3791 25.1383L12.0703 25.1086C11.7925 25.0788 11.5764 25.0192 11.5764 24.8405C11.5764 24.632 11.7925 24.5129 12.1321 24.5129C12.5025 24.5129 12.873 24.6618 13.0582 24.7511L13.336 24.2448ZM30.5619 23.947C30.1914 23.947 29.9445 24.1257 29.7901 24.3639V24.0065H29.1418V26.8659H29.7901V25.2575C29.7901 24.7809 30.0062 24.5129 30.4075 24.5129C30.531 24.5129 30.6854 24.5426 30.8088 24.5724L30.9941 23.9767C30.8706 23.947 30.6854 23.947 30.5619 23.947ZM22.2885 25.4362C22.2885 26.2999 22.906 26.9254 23.8629 26.9254C24.2951 26.9254 24.6038 26.8361 24.9125 26.5978L24.6038 26.0915C24.3569 26.2702 24.1099 26.3595 23.8321 26.3595C23.3073 26.3595 22.9368 26.0021 22.9368 25.4362C22.9368 24.9001 23.3073 24.5426 23.8321 24.5129C24.1099 24.5129 24.3569 24.6022 24.6038 24.7809L24.9125 24.2746C24.6038 24.0363 24.2951 23.947 23.8629 23.947C22.906 23.947 22.2885 24.5724 22.2885 25.4362ZM28.2775 25.4362V24.0065H27.6292V24.3639C27.4131 24.0959 27.1044 23.947 26.703 23.947C25.8695 23.947 25.2213 24.5724 25.2213 25.4362C25.2213 26.2999 25.8695 26.9254 26.703 26.9254C27.1352 26.9254 27.4439 26.7765 27.6292 26.5084V26.8659H28.2775V25.4362ZM25.9004 25.4362C25.9004 24.9298 26.24 24.5129 26.7957 24.5129C27.3205 24.5129 27.6909 24.9001 27.6909 25.4362C27.6909 25.9425 27.3205 26.3595 26.7957 26.3595C26.24 26.3297 25.9004 25.9425 25.9004 25.4362ZM18.1519 23.947C17.2875 23.947 16.6701 24.5426 16.6701 25.4362C16.6701 26.3297 17.2875 26.9254 18.1827 26.9254C18.6149 26.9254 19.0471 26.8063 19.3867 26.5382L19.078 26.0915C18.831 26.2702 18.5223 26.3893 18.2136 26.3893C17.8123 26.3893 17.411 26.2106 17.3184 25.7043H19.5102V25.466C19.5411 24.5426 18.9854 23.947 18.1519 23.947ZM18.1519 24.4831C18.5532 24.4831 18.831 24.7214 18.8928 25.1681H17.3492C17.411 24.7809 17.6888 24.4831 18.1519 24.4831ZM34.2355 25.4362V22.8747H33.5872V24.3639C33.3711 24.0959 33.0624 23.947 32.6611 23.947C31.8276 23.947 31.1793 24.5724 31.1793 25.4362C31.1793 26.2999 31.8276 26.9254 32.6611 26.9254C33.0933 26.9254 33.402 26.7765 33.5872 26.5084V26.8659H34.2355V25.4362ZM31.8584 25.4362C31.8584 24.9298 32.198 24.5129 32.7537 24.5129C33.2785 24.5129 33.6489 24.9001 33.6489 25.4362C33.6489 25.9425 33.2785 26.3595 32.7537 26.3595C32.198 26.3297 31.8584 25.9425 31.8584 25.4362ZM10.1872 25.4362V24.0065H9.53896V24.3639C9.32286 24.0959 9.01415 23.947 8.61284 23.947C7.77933 23.947 7.13104 24.5724 7.13104 25.4362C7.13104 26.2999 7.77933 26.9254 8.61284 26.9254C9.04502 26.9254 9.35373 26.7765 9.53896 26.5084V26.8659H10.1872V25.4362ZM7.77933 25.4362C7.77933 24.9298 8.11891 24.5129 8.67458 24.5129C9.19938 24.5129 9.56983 24.9001 9.56983 25.4362C9.56983 25.9425 9.19938 26.3595 8.67458 26.3595C8.11891 26.3297 7.77933 25.9425 7.77933 25.4362Z" fill="black"/>
<path d="M22.8444 2.29352H13.1201V19.1517H22.8444V2.29352Z" fill="#FF5F00"/>
<path d="M13.7374 10.7225C13.7374 7.29725 15.4045 4.25921 17.9667 2.29341C16.0836 0.863743 13.7066 -1.52588e-05 11.1134 -1.52588e-05C4.97018 -1.52588e-05 0 4.79533 0 10.7225C0 16.6497 4.97018 21.445 11.1134 21.445C13.7066 21.445 16.0836 20.5813 17.9667 19.1516C15.4045 17.2156 13.7374 14.1477 13.7374 10.7225Z" fill="#EB001B"/>
<path d="M35.9643 10.7225C35.9643 16.6497 30.9941 21.445 24.8509 21.445C22.2577 21.445 19.8807 20.5813 17.9976 19.1516C20.5907 17.1858 22.2268 14.1477 22.2268 10.7225C22.2268 7.29725 20.5598 4.25921 17.9976 2.29341C19.8807 0.863743 22.2577 -1.52588e-05 24.8509 -1.52588e-05C30.9941 -1.52588e-05 35.9643 4.82512 35.9643 10.7225Z" fill="#F79E1B"/>
</svg>
